<svg xmlns="http://www.w3.org/2000/svg" xmlns:xlink="http://www.w3.org/1999/xlink" width="500" zoomAndPan="magnify" viewBox="0 0 375 374.999991" height="500" preserveAspectRatio="xMidYMid meet" version="1.0"><defs><clipPath id="beb5fbb0ff"><path d="M 42 24.003906 L 333 24.003906 L 333 351 L 42 351 Z M 42 24.003906 " clip-rule="nonzero"/></clipPath><clipPath id="760dc603d7"><path d="M 81.4375 82.761719 L 293.6875 82.761719 L 293.6875 292.011719 L 81.4375 292.011719 Z M 81.4375 82.761719 " clip-rule="nonzero"/></clipPath></defs><path fill="#ffffff" d="M 329.984375 216.726562 C 329.984375 289.371094 187.492188 348.257812 187.492188 348.257812 C 187.492188 348.257812 45.007812 289.371094 45.007812 216.726562 L 45.007812 78.929688 C 70.726562 72.628906 90.992188 52.433594 97.378906 26.746094 L 277.605469 26.746094 C 283.996094 52.433594 304.261719 72.628906 329.984375 78.929688 L 329.984375 216.726562 " fill-opacity="1" fill-rule="nonzero"/><g clip-path="url(#beb5fbb0ff)"><path fill="#00bf63" d="M 329.984375 216.726562 L 327.261719 216.726562 C 327.261719 225.355469 325.144531 233.832031 321.378906 242.105469 C 314.800781 256.585938 303.117188 270.410156 289.226562 282.90625 C 268.394531 301.65625 242.65625 317.410156 222.15625 328.429688 C 211.90625 333.941406 202.964844 338.273438 196.59375 341.226562 C 193.40625 342.703125 190.863281 343.835938 189.121094 344.59375 C 188.25 344.976562 187.578125 345.261719 187.128906 345.453125 C 186.902344 345.550781 186.730469 345.621094 186.617188 345.667969 C 186.5 345.714844 186.449219 345.738281 186.449219 345.738281 L 187.492188 348.257812 L 188.53125 345.738281 L 188.4375 345.699219 C 186.375 344.84375 150.898438 329.886719 116.105469 306.355469 C 98.710938 294.59375 81.496094 280.679688 68.738281 265.4375 C 62.355469 257.816406 57.085938 249.867188 53.4375 241.71875 C 49.78125 233.5625 47.734375 225.222656 47.730469 216.726562 L 47.730469 78.929688 L 45.007812 78.929688 L 45.660156 81.574219 C 72.367188 75.023438 93.386719 54.078125 100.023438 27.398438 L 97.378906 26.746094 L 97.378906 29.46875 L 277.605469 29.46875 L 277.605469 26.746094 L 274.964844 27.398438 C 281.605469 54.078125 302.625 75.023438 329.335938 81.574219 L 329.984375 78.929688 L 327.261719 78.929688 L 327.261719 216.726562 L 332.707031 216.726562 L 332.707031 78.929688 C 332.707031 77.671875 331.851562 76.582031 330.628906 76.285156 C 305.902344 70.230469 286.390625 50.789062 280.253906 26.085938 C 279.949219 24.871094 278.855469 24.023438 277.605469 24.023438 L 97.378906 24.023438 C 96.128906 24.023438 95.039062 24.871094 94.738281 26.085938 C 88.601562 50.789062 69.09375 70.230469 44.359375 76.285156 C 43.140625 76.582031 42.285156 77.671875 42.285156 78.929688 L 42.285156 216.726562 C 42.285156 226.253906 44.625 235.511719 48.652344 244.363281 C 55.707031 259.851562 67.890625 274.136719 82.121094 286.953125 C 103.476562 306.167969 129.515625 322.078125 150.246094 333.226562 C 170.976562 344.375 186.390625 350.746094 186.449219 350.769531 C 187.113281 351.042969 187.867188 351.042969 188.53125 350.769531 C 188.625 350.726562 224.367188 335.96875 260.25 311.996094 C 278.191406 300.003906 296.183594 285.714844 309.792969 269.6875 C 316.597656 261.671875 322.308594 253.210938 326.335938 244.363281 C 330.367188 235.511719 332.707031 226.253906 332.707031 216.726562 L 329.984375 216.726562 " fill-opacity="1" fill-rule="nonzero"/></g><g clip-path="url(#760dc603d7)"><path fill="#00bf63" d="M 266.503906 210.488281 L 239.992188 229.082031 C 237.429688 222.628906 231.121094 218.054688 223.765625 218.054688 L 187.550781 218.054688 C 177.695312 211.117188 164.480469 203.394531 148.320312 202.695312 C 133.023438 202.023438 120.210938 206.644531 109.148438 216.785156 L 85.414062 216.789062 C 83.230469 216.789062 81.464844 218.554688 81.464844 220.738281 L 81.464844 271.738281 C 81.464844 273.921875 83.230469 275.6875 85.414062 275.6875 L 110.640625 275.6875 C 113.203125 275.6875 115.78125 275.933594 118.300781 276.414062 L 199.382812 291.933594 C 200.464844 292.140625 201.546875 292.242188 202.625 292.242188 C 205.914062 292.242188 209.136719 291.292969 211.9375 289.464844 C 225.480469 280.636719 264.089844 253.449219 285.902344 238.027344 C 289.640625 235.382812 292.097656 231.4375 292.8125 226.914062 C 293.527344 222.390625 292.417969 217.878906 289.679688 214.207031 C 284.195312 206.851562 274.019531 205.21875 266.503906 210.488281 Z M 285.011719 225.679688 C 284.632812 228.078125 283.328125 230.175781 281.34375 231.578125 C 263.820312 243.964844 221.558594 273.761719 207.625 282.847656 C 205.621094 284.15625 203.21875 284.625 200.867188 284.175781 L 119.785156 268.65625 C 116.777344 268.082031 113.699219 267.792969 110.640625 267.792969 L 89.363281 267.792969 L 89.363281 224.6875 L 110.714844 224.683594 C 111.738281 224.683594 112.71875 224.289062 113.453125 223.578125 C 123.269531 214.117188 134.222656 209.980469 147.976562 210.585938 C 162.636719 211.222656 174.925781 218.738281 183.996094 225.214844 C 184.664062 225.691406 185.46875 225.949219 186.292969 225.949219 L 223.765625 225.949219 C 229.007812 225.949219 233.277344 230.199219 233.316406 235.433594 L 233.308594 235.566406 C 233.273438 239.355469 230.1875 242.429688 226.390625 242.429688 L 176.898438 242.429688 C 174.71875 242.429688 172.949219 244.195312 172.949219 246.378906 C 172.949219 248.558594 174.71875 250.328125 176.898438 250.328125 L 226.390625 250.328125 C 233.703125 250.328125 239.777344 245.003906 240.980469 238.035156 L 271.039062 216.953125 C 275.03125 214.15625 280.4375 215.023438 283.34375 218.929688 C 284.800781 220.878906 285.394531 223.277344 285.011719 225.679688 Z M 195.957031 87.386719 L 192.734375 82.761719 L 189.484375 87.386719 C 188.824219 88.324219 172.921875 110.429688 141.105469 110.429688 L 137.15625 110.429688 L 137.15625 114.378906 C 137.15625 158.382812 155.1875 191.109375 190.746094 211.648438 L 192.722656 212.789062 L 194.695312 211.648438 C 230.253906 191.105469 248.285156 158.378906 248.285156 114.378906 L 248.285156 110.429688 L 244.335938 110.429688 C 212.542969 110.429688 196.644531 88.359375 195.960938 87.386719 Z M 192.722656 203.644531 C 162.105469 185.164062 146.101562 156.449219 145.105469 118.222656 C 170.5625 116.875 186.335938 102.898438 192.722656 95.863281 C 199.105469 102.898438 214.878906 116.875 240.335938 118.222656 C 239.339844 156.449219 223.335938 185.164062 192.722656 203.644531 Z M 187.371094 165.066406 L 219.933594 124.484375 L 226.097656 129.429688 L 187.972656 176.929688 L 165.785156 154.414062 L 171.410156 148.867188 Z M 187.371094 165.066406 " fill-opacity="1" fill-rule="nonzero"/></g></svg>