<svg xmlns="http://www.w3.org/2000/svg" xmlns:xlink="http://www.w3.org/1999/xlink" width="500" zoomAndPan="magnify" viewBox="0 0 375 374.999991" height="500" preserveAspectRatio="xMidYMid meet" version="1.0"><defs><g/><linearGradient x1="0" gradientTransform="matrix(0.75, 0, 0, 0.75, 0.0000045, 0)" y1="250" x2="499.999979" gradientUnits="userSpaceOnUse" y2="250" id="fa4598bdd0"><stop stop-opacity="1" stop-color="rgb(65.098572%, 65.098572%, 65.098572%)" offset="0"/><stop stop-opacity="1" stop-color="rgb(65.234375%, 65.234375%, 65.234375%)" offset="0.0078125"/><stop stop-opacity="1" stop-color="rgb(65.507507%, 65.507507%, 65.507507%)" offset="0.015625"/><stop stop-opacity="1" stop-color="rgb(65.78064%, 65.78064%, 65.78064%)" offset="0.0234375"/><stop stop-opacity="1" stop-color="rgb(66.052246%, 66.052246%, 66.052246%)" offset="0.03125"/><stop stop-opacity="1" stop-color="rgb(66.325378%, 66.325378%, 66.325378%)" offset="0.0390625"/><stop stop-opacity="1" stop-color="rgb(66.598511%, 66.598511%, 66.598511%)" offset="0.046875"/><stop stop-opacity="1" stop-color="rgb(66.871643%, 66.871643%, 66.871643%)" offset="0.0546875"/><stop stop-opacity="1" stop-color="rgb(67.14325%, 67.14325%, 67.14325%)" offset="0.0625"/><stop stop-opacity="1" stop-color="rgb(67.416382%, 67.416382%, 67.416382%)" offset="0.0703125"/><stop stop-opacity="1" stop-color="rgb(67.689514%, 67.689514%, 67.689514%)" offset="0.078125"/><stop stop-opacity="1" stop-color="rgb(67.961121%, 67.961121%, 67.961121%)" offset="0.0859375"/><stop stop-opacity="1" stop-color="rgb(68.234253%, 68.234253%, 68.234253%)" offset="0.09375"/><stop stop-opacity="1" stop-color="rgb(68.507385%, 68.507385%, 68.507385%)" offset="0.101562"/><stop stop-opacity="1" stop-color="rgb(68.778992%, 68.778992%, 68.778992%)" offset="0.109375"/><stop stop-opacity="1" stop-color="rgb(69.052124%, 69.052124%, 69.052124%)" offset="0.117188"/><stop stop-opacity="1" stop-color="rgb(69.325256%, 69.325256%, 69.325256%)" offset="0.125"/><stop stop-opacity="1" stop-color="rgb(69.596863%, 69.596863%, 69.596863%)" offset="0.132812"/><stop stop-opacity="1" stop-color="rgb(69.869995%, 69.869995%, 69.869995%)" offset="0.140625"/><stop stop-opacity="1" stop-color="rgb(70.143127%, 70.143127%, 70.143127%)" offset="0.148437"/><stop stop-opacity="1" stop-color="rgb(70.41626%, 70.41626%, 70.41626%)" offset="0.15625"/><stop stop-opacity="1" stop-color="rgb(70.687866%, 70.687866%, 70.687866%)" offset="0.164062"/><stop stop-opacity="1" stop-color="rgb(70.960999%, 70.960999%, 70.960999%)" offset="0.171875"/><stop stop-opacity="1" stop-color="rgb(71.234131%, 71.234131%, 71.234131%)" offset="0.179687"/><stop stop-opacity="1" stop-color="rgb(71.505737%, 71.505737%, 71.505737%)" offset="0.1875"/><stop stop-opacity="1" stop-color="rgb(71.77887%, 71.77887%, 71.77887%)" offset="0.195312"/><stop stop-opacity="1" stop-color="rgb(72.052002%, 72.052002%, 72.052002%)" offset="0.203125"/><stop stop-opacity="1" stop-color="rgb(72.323608%, 72.323608%, 72.323608%)" offset="0.210938"/><stop stop-opacity="1" stop-color="rgb(72.596741%, 72.596741%, 72.596741%)" offset="0.21875"/><stop stop-opacity="1" stop-color="rgb(72.869873%, 72.869873%, 72.869873%)" offset="0.226562"/><stop stop-opacity="1" stop-color="rgb(73.141479%, 73.141479%, 73.141479%)" offset="0.234375"/><stop stop-opacity="1" stop-color="rgb(73.414612%, 73.414612%, 73.414612%)" offset="0.242188"/><stop stop-opacity="1" stop-color="rgb(73.687744%, 73.687744%, 73.687744%)" offset="0.25"/><stop stop-opacity="1" stop-color="rgb(73.959351%, 73.959351%, 73.959351%)" offset="0.257812"/><stop stop-opacity="1" stop-color="rgb(74.232483%, 74.232483%, 74.232483%)" offset="0.265625"/><stop stop-opacity="1" stop-color="rgb(74.505615%, 74.505615%, 74.505615%)" offset="0.273437"/><stop stop-opacity="1" stop-color="rgb(74.778748%, 74.778748%, 74.778748%)" offset="0.28125"/><stop stop-opacity="1" stop-color="rgb(75.050354%, 75.050354%, 75.050354%)" offset="0.289062"/><stop stop-opacity="1" stop-color="rgb(75.323486%, 75.323486%, 75.323486%)" offset="0.296875"/><stop stop-opacity="1" stop-color="rgb(75.596619%, 75.596619%, 75.596619%)" offset="0.304687"/><stop stop-opacity="1" stop-color="rgb(75.868225%, 75.868225%, 75.868225%)" offset="0.3125"/><stop stop-opacity="1" stop-color="rgb(76.141357%, 76.141357%, 76.141357%)" offset="0.320312"/><stop stop-opacity="1" stop-color="rgb(76.41449%, 76.41449%, 76.41449%)" offset="0.328125"/><stop stop-opacity="1" stop-color="rgb(76.686096%, 76.686096%, 76.686096%)" offset="0.335937"/><stop stop-opacity="1" stop-color="rgb(76.959229%, 76.959229%, 76.959229%)" offset="0.34375"/><stop stop-opacity="1" stop-color="rgb(77.232361%, 77.232361%, 77.232361%)" offset="0.351562"/><stop stop-opacity="1" stop-color="rgb(77.503967%, 77.503967%, 77.503967%)" offset="0.359375"/><stop stop-opacity="1" stop-color="rgb(77.7771%, 77.7771%, 77.7771%)" offset="0.367187"/><stop stop-opacity="1" stop-color="rgb(78.050232%, 78.050232%, 78.050232%)" offset="0.375"/><stop stop-opacity="1" stop-color="rgb(78.321838%, 78.321838%, 78.321838%)" offset="0.382812"/><stop stop-opacity="1" stop-color="rgb(78.594971%, 78.594971%, 78.594971%)" offset="0.390625"/><stop stop-opacity="1" stop-color="rgb(78.868103%, 78.868103%, 78.868103%)" offset="0.398438"/><stop stop-opacity="1" stop-color="rgb(79.141235%, 79.141235%, 79.141235%)" offset="0.40625"/><stop stop-opacity="1" stop-color="rgb(79.412842%, 79.412842%, 79.412842%)" offset="0.414062"/><stop stop-opacity="1" stop-color="rgb(79.685974%, 79.685974%, 79.685974%)" offset="0.421875"/><stop stop-opacity="1" stop-color="rgb(79.959106%, 79.959106%, 79.959106%)" offset="0.429688"/><stop stop-opacity="1" stop-color="rgb(80.230713%, 80.230713%, 80.230713%)" offset="0.4375"/><stop stop-opacity="1" stop-color="rgb(80.503845%, 80.503845%, 80.503845%)" offset="0.445312"/><stop stop-opacity="1" stop-color="rgb(80.776978%, 80.776978%, 80.776978%)" offset="0.453125"/><stop stop-opacity="1" stop-color="rgb(81.048584%, 81.048584%, 81.048584%)" offset="0.460938"/><stop stop-opacity="1" stop-color="rgb(81.321716%, 81.321716%, 81.321716%)" offset="0.46875"/><stop stop-opacity="1" stop-color="rgb(81.594849%, 81.594849%, 81.594849%)" offset="0.476562"/><stop stop-opacity="1" stop-color="rgb(81.866455%, 81.866455%, 81.866455%)" offset="0.484375"/><stop stop-opacity="1" stop-color="rgb(82.139587%, 82.139587%, 82.139587%)" offset="0.492188"/><stop stop-opacity="1" stop-color="rgb(82.41272%, 82.41272%, 82.41272%)" offset="0.5"/><stop stop-opacity="1" stop-color="rgb(82.684326%, 82.684326%, 82.684326%)" offset="0.507812"/><stop stop-opacity="1" stop-color="rgb(82.957458%, 82.957458%, 82.957458%)" offset="0.515625"/><stop stop-opacity="1" stop-color="rgb(83.230591%, 83.230591%, 83.230591%)" offset="0.523437"/><stop stop-opacity="1" stop-color="rgb(83.503723%, 83.503723%, 83.503723%)" offset="0.53125"/><stop stop-opacity="1" stop-color="rgb(83.77533%, 83.77533%, 83.77533%)" offset="0.539062"/><stop stop-opacity="1" stop-color="rgb(84.048462%, 84.048462%, 84.048462%)" offset="0.546875"/><stop stop-opacity="1" stop-color="rgb(84.321594%, 84.321594%, 84.321594%)" offset="0.554687"/><stop stop-opacity="1" stop-color="rgb(84.593201%, 84.593201%, 84.593201%)" offset="0.5625"/><stop stop-opacity="1" stop-color="rgb(84.866333%, 84.866333%, 84.866333%)" offset="0.570312"/><stop stop-opacity="1" stop-color="rgb(85.139465%, 85.139465%, 85.139465%)" offset="0.578125"/><stop stop-opacity="1" stop-color="rgb(85.411072%, 85.411072%, 85.411072%)" offset="0.585937"/><stop stop-opacity="1" stop-color="rgb(85.684204%, 85.684204%, 85.684204%)" offset="0.59375"/><stop stop-opacity="1" stop-color="rgb(85.957336%, 85.957336%, 85.957336%)" offset="0.601562"/><stop stop-opacity="1" stop-color="rgb(86.228943%, 86.228943%, 86.228943%)" offset="0.609375"/><stop stop-opacity="1" stop-color="rgb(86.502075%, 86.502075%, 86.502075%)" offset="0.617187"/><stop stop-opacity="1" stop-color="rgb(86.775208%, 86.775208%, 86.775208%)" offset="0.625"/><stop stop-opacity="1" stop-color="rgb(87.046814%, 87.046814%, 87.046814%)" offset="0.632812"/><stop stop-opacity="1" stop-color="rgb(87.319946%, 87.319946%, 87.319946%)" offset="0.640625"/><stop stop-opacity="1" stop-color="rgb(87.593079%, 87.593079%, 87.593079%)" offset="0.648437"/><stop stop-opacity="1" stop-color="rgb(87.866211%, 87.866211%, 87.866211%)" offset="0.65625"/><stop stop-opacity="1" stop-color="rgb(88.137817%, 88.137817%, 88.137817%)" offset="0.664062"/><stop stop-opacity="1" stop-color="rgb(88.41095%, 88.41095%, 88.41095%)" offset="0.671875"/><stop stop-opacity="1" stop-color="rgb(88.684082%, 88.684082%, 88.684082%)" offset="0.679687"/><stop stop-opacity="1" stop-color="rgb(88.955688%, 88.955688%, 88.955688%)" offset="0.6875"/><stop stop-opacity="1" stop-color="rgb(89.228821%, 89.228821%, 89.228821%)" offset="0.695312"/><stop stop-opacity="1" stop-color="rgb(89.501953%, 89.501953%, 89.501953%)" offset="0.703125"/><stop stop-opacity="1" stop-color="rgb(89.77356%, 89.77356%, 89.77356%)" offset="0.710937"/><stop stop-opacity="1" stop-color="rgb(90.046692%, 90.046692%, 90.046692%)" offset="0.71875"/><stop stop-opacity="1" stop-color="rgb(90.319824%, 90.319824%, 90.319824%)" offset="0.726562"/><stop stop-opacity="1" stop-color="rgb(90.591431%, 90.591431%, 90.591431%)" offset="0.734375"/><stop stop-opacity="1" stop-color="rgb(90.864563%, 90.864563%, 90.864563%)" offset="0.742187"/><stop stop-opacity="1" stop-color="rgb(91.137695%, 91.137695%, 91.137695%)" offset="0.75"/><stop stop-opacity="1" stop-color="rgb(91.409302%, 91.409302%, 91.409302%)" offset="0.757812"/><stop stop-opacity="1" stop-color="rgb(91.682434%, 91.682434%, 91.682434%)" offset="0.765625"/><stop stop-opacity="1" stop-color="rgb(91.955566%, 91.955566%, 91.955566%)" offset="0.773438"/><stop stop-opacity="1" stop-color="rgb(92.228699%, 92.228699%, 92.228699%)" offset="0.78125"/><stop stop-opacity="1" stop-color="rgb(92.500305%, 92.500305%, 92.500305%)" offset="0.789062"/><stop stop-opacity="1" stop-color="rgb(92.773438%, 92.773438%, 92.773438%)" offset="0.796875"/><stop stop-opacity="1" stop-color="rgb(93.04657%, 93.04657%, 93.04657%)" offset="0.804688"/><stop stop-opacity="1" stop-color="rgb(93.318176%, 93.318176%, 93.318176%)" offset="0.8125"/><stop stop-opacity="1" stop-color="rgb(93.591309%, 93.591309%, 93.591309%)" offset="0.820312"/><stop stop-opacity="1" stop-color="rgb(93.864441%, 93.864441%, 93.864441%)" offset="0.828125"/><stop stop-opacity="1" stop-color="rgb(94.136047%, 94.136047%, 94.136047%)" offset="0.835938"/><stop stop-opacity="1" stop-color="rgb(94.40918%, 94.40918%, 94.40918%)" offset="0.84375"/><stop stop-opacity="1" stop-color="rgb(94.682312%, 94.682312%, 94.682312%)" offset="0.851562"/><stop stop-opacity="1" stop-color="rgb(94.953918%, 94.953918%, 94.953918%)" offset="0.859375"/><stop stop-opacity="1" stop-color="rgb(95.227051%, 95.227051%, 95.227051%)" offset="0.867188"/><stop stop-opacity="1" stop-color="rgb(95.500183%, 95.500183%, 95.500183%)" offset="0.875"/><stop stop-opacity="1" stop-color="rgb(95.77179%, 95.77179%, 95.77179%)" offset="0.882812"/><stop stop-opacity="1" stop-color="rgb(96.044922%, 96.044922%, 96.044922%)" offset="0.890625"/><stop stop-opacity="1" stop-color="rgb(96.318054%, 96.318054%, 96.318054%)" offset="0.898438"/><stop stop-opacity="1" stop-color="rgb(96.591187%, 96.591187%, 96.591187%)" offset="0.90625"/><stop stop-opacity="1" stop-color="rgb(96.862793%, 96.862793%, 96.862793%)" offset="0.914062"/><stop stop-opacity="1" stop-color="rgb(97.135925%, 97.135925%, 97.135925%)" offset="0.921875"/><stop stop-opacity="1" stop-color="rgb(97.409058%, 97.409058%, 97.409058%)" offset="0.929688"/><stop stop-opacity="1" stop-color="rgb(97.680664%, 97.680664%, 97.680664%)" offset="0.9375"/><stop stop-opacity="1" stop-color="rgb(97.953796%, 97.953796%, 97.953796%)" offset="0.945312"/><stop stop-opacity="1" stop-color="rgb(98.226929%, 98.226929%, 98.226929%)" offset="0.953125"/><stop stop-opacity="1" stop-color="rgb(98.498535%, 98.498535%, 98.498535%)" offset="0.960938"/><stop stop-opacity="1" stop-color="rgb(98.771667%, 98.771667%, 98.771667%)" offset="0.96875"/><stop stop-opacity="1" stop-color="rgb(99.0448%, 99.0448%, 99.0448%)" offset="0.976562"/><stop stop-opacity="1" stop-color="rgb(99.316406%, 99.316406%, 99.316406%)" offset="0.984375"/><stop stop-opacity="1" stop-color="rgb(99.589539%, 99.589539%, 99.589539%)" offset="0.992188"/><stop stop-opacity="1" stop-color="rgb(99.862671%, 99.862671%, 99.862671%)" offset="1"/></linearGradient><clipPath id="6f69bcdc3f"><path d="M 127.40625 134 L 158 134 L 158 224.523438 L 127.40625 224.523438 Z M 127.40625 134 " clip-rule="nonzero"/></clipPath><clipPath id="4a82028c2a"><path d="M 147 74.523438 L 247.40625 74.523438 L 247.40625 180 L 147 180 Z M 147 74.523438 " clip-rule="nonzero"/></clipPath></defs><rect x="-37.5" width="450" fill="#ffffff" y="-37.499999" height="449.999989" fill-opacity="1"/><rect x="-37.5" fill="url(#fa4598bdd0)" width="450" y="-37.499999" height="449.999989"/><g clip-path="url(#6f69bcdc3f)"><path fill="#004aad" d="M 157.425781 134.132812 L 127.402344 134.132812 L 127.402344 224.476562 L 157.425781 224.476562 L 157.425781 134.132812 " fill-opacity="1" fill-rule="nonzero"/></g><g clip-path="url(#4a82028c2a)"><path fill="#004aad" d="M 199.5625 74.5625 L 147.640625 74.582031 L 168.175781 104.519531 L 199.527344 104.550781 C 209.453125 104.570312 217.539062 112.65625 217.558594 122.578125 L 217.574219 131.492188 C 217.582031 136.328125 215.707031 140.871094 212.296875 144.289062 C 208.882812 147.707031 204.339844 149.589844 199.496094 149.589844 L 180.128906 149.625 L 180.128906 179.609375 L 199.507812 179.574219 C 212.359375 179.574219 224.441406 174.566406 233.519531 165.472656 C 242.601562 156.378906 247.585938 144.292969 247.566406 131.441406 L 247.550781 122.527344 C 247.503906 96.132812 225.988281 74.617188 199.5625 74.5625 Z M 199.550781 82.789062 C 221.441406 82.835938 239.28125 100.667969 239.320312 122.542969 L 239.339844 131.453125 C 239.355469 142.105469 235.222656 152.125 227.699219 159.660156 C 220.171875 167.195312 210.160156 171.347656 199.492188 171.347656 L 188.355469 171.367188 L 188.355469 157.835938 L 199.496094 157.816406 C 206.539062 157.816406 213.152344 155.074219 218.117188 150.101562 C 223.085938 145.128906 225.8125 138.515625 225.800781 131.476562 L 225.785156 122.566406 C 225.757812 108.125 213.988281 96.351562 199.535156 96.324219 L 172.511719 96.296875 L 163.257812 82.804688 L 199.550781 82.789062 " fill-opacity="1" fill-rule="nonzero"/></g><g fill="#004aad" fill-opacity="1"><g transform="translate(44.755773, 267.245688)"><g><path d="M 16.03125 -37 C 18 -37 19.921875 -36.710938 21.796875 -36.140625 C 23.679688 -35.566406 25.078125 -35 25.984375 -34.4375 L 27.3125 -33.5625 L 23.96875 -26.953125 C 23.695312 -27.128906 23.328125 -27.359375 22.859375 -27.640625 C 22.390625 -27.921875 21.507812 -28.296875 20.21875 -28.765625 C 18.925781 -29.234375 17.722656 -29.46875 16.609375 -29.46875 C 15.222656 -29.46875 14.15625 -29.171875 13.40625 -28.578125 C 12.664062 -27.992188 12.296875 -27.203125 12.296875 -26.203125 C 12.296875 -25.703125 12.46875 -25.238281 12.8125 -24.8125 C 13.164062 -24.394531 13.769531 -23.941406 14.625 -23.453125 C 15.476562 -22.972656 16.226562 -22.582031 16.875 -22.28125 C 17.519531 -21.988281 18.515625 -21.550781 19.859375 -20.96875 C 22.210938 -19.96875 24.21875 -18.609375 25.875 -16.890625 C 27.53125 -15.171875 28.359375 -13.226562 28.359375 -11.0625 C 28.359375 -8.96875 27.984375 -7.144531 27.234375 -5.59375 C 26.492188 -4.039062 25.46875 -2.820312 24.15625 -1.9375 C 22.851562 -1.050781 21.40625 -0.398438 19.8125 0.015625 C 18.226562 0.441406 16.515625 0.65625 14.671875 0.65625 C 13.085938 0.65625 11.53125 0.492188 10 0.171875 C 8.46875 -0.148438 7.1875 -0.550781 6.15625 -1.03125 C 5.132812 -1.519531 4.210938 -2 3.390625 -2.46875 C 2.566406 -2.9375 1.960938 -3.332031 1.578125 -3.65625 L 1.015625 -4.140625 L 5.15625 -11.09375 C 5.507812 -10.800781 5.992188 -10.425781 6.609375 -9.96875 C 7.222656 -9.519531 8.316406 -8.910156 9.890625 -8.140625 C 11.460938 -7.378906 12.847656 -7 14.046875 -7 C 17.546875 -7 19.296875 -8.191406 19.296875 -10.578125 C 19.296875 -11.066406 19.171875 -11.523438 18.921875 -11.953125 C 18.671875 -12.378906 18.226562 -12.804688 17.59375 -13.234375 C 16.96875 -13.660156 16.410156 -14 15.921875 -14.25 C 15.441406 -14.5 14.648438 -14.878906 13.546875 -15.390625 C 12.441406 -15.910156 11.625 -16.300781 11.09375 -16.5625 C 8.894531 -17.644531 7.191406 -19 5.984375 -20.625 C 4.785156 -22.257812 4.1875 -24.019531 4.1875 -25.90625 C 4.1875 -29.15625 5.390625 -31.816406 7.796875 -33.890625 C 10.203125 -35.960938 12.945312 -37 16.03125 -37 Z M 16.03125 -37 "/></g></g></g><g fill="#004aad" fill-opacity="1"><g transform="translate(72.234197, 267.245688)"><g><path d="M 0.359375 -29.078125 L 0.359375 -36.34375 L 25.90625 -36.34375 L 25.90625 -29.078125 L 17.265625 -29.078125 L 17.265625 0 L 8.984375 0 L 8.984375 -29.078125 Z M 0.359375 -29.078125 "/></g></g></g><g fill="#004aad" fill-opacity="1"><g transform="translate(96.365869, 267.245688)"><g><path d="M 21.09375 -36.34375 L 35.765625 0 L 26.875 0 L 24.1875 -7.265625 L 10.34375 -7.265625 L 7.671875 0 L -1.234375 0 L 13.4375 -36.34375 Z M 21.359375 -14.53125 L 17.3125 -25.109375 L 17.21875 -25.109375 L 13.171875 -14.53125 Z M 21.359375 -14.53125 "/></g></g></g><g fill="#004aad" fill-opacity="1"><g transform="translate(128.776356, 267.245688)"><g><path d="M 0.359375 -29.078125 L 0.359375 -36.34375 L 25.90625 -36.34375 L 25.90625 -29.078125 L 17.265625 -29.078125 L 17.265625 0 L 8.984375 0 L 8.984375 -29.078125 Z M 0.359375 -29.078125 "/></g></g></g><g fill="#004aad" fill-opacity="1"><g transform="translate(155.021985, 267.245688)"><g><path d="M 10.921875 -36.34375 L 10.921875 0 L 2.640625 0 L 2.640625 -36.34375 Z M 10.921875 -36.34375 "/></g></g></g><g fill="#004aad" fill-opacity="1"><g transform="translate(168.585164, 267.245688)"><g><path d="M 1.015625 -18.1875 C 1.015625 -23.445312 2.804688 -27.894531 6.390625 -31.53125 C 9.972656 -35.175781 14.289062 -37 19.34375 -37 C 24.414062 -37 28.726562 -35.1875 32.28125 -31.5625 C 35.832031 -27.9375 37.609375 -23.476562 37.609375 -18.1875 C 37.609375 -12.875 35.863281 -8.40625 32.375 -4.78125 C 28.882812 -1.15625 24.539062 0.65625 19.34375 0.65625 C 14.019531 0.65625 9.632812 -1.140625 6.1875 -4.734375 C 2.738281 -8.328125 1.015625 -12.8125 1.015625 -18.1875 Z M 9.953125 -18.1875 C 9.953125 -16.28125 10.242188 -14.539062 10.828125 -12.96875 C 11.421875 -11.394531 12.453125 -10.066406 13.921875 -8.984375 C 15.390625 -7.898438 17.195312 -7.359375 19.34375 -7.359375 C 22.425781 -7.359375 24.75 -8.414062 26.3125 -10.53125 C 27.882812 -12.644531 28.671875 -15.195312 28.671875 -18.1875 C 28.671875 -21.15625 27.867188 -23.703125 26.265625 -25.828125 C 24.671875 -27.960938 22.363281 -29.03125 19.34375 -29.03125 C 16.34375 -29.03125 14.023438 -27.960938 12.390625 -25.828125 C 10.765625 -23.703125 9.953125 -21.15625 9.953125 -18.1875 Z M 9.953125 -18.1875 "/></g></g></g><g fill="#004aad" fill-opacity="1"><g transform="translate(207.204983, 267.245688)"><g><path d="M 10.921875 -22.546875 L 10.921875 0 L 2.640625 0 L 2.640625 -36.34375 L 10.921875 -36.34375 L 25.375 -13.78125 L 25.453125 -13.78125 L 25.453125 -36.34375 L 33.734375 -36.34375 L 33.734375 0 L 25.453125 0 L 11.015625 -22.546875 Z M 10.921875 -22.546875 "/></g></g></g><g fill="#004aad" fill-opacity="1"><g transform="translate(243.578953, 267.245688)"><g><path d="M 23.4375 -36.34375 L 23.4375 -29.078125 L 10.921875 -29.078125 L 10.921875 -21.84375 L 22.90625 -21.84375 L 22.90625 -14.578125 L 10.921875 -14.578125 L 10.921875 -7.265625 L 23.4375 -7.265625 L 23.4375 0 L 2.640625 0 L 2.640625 -36.34375 Z M 23.4375 -36.34375 "/></g></g></g><g fill="#004aad" fill-opacity="1"><g transform="translate(269.120001, 267.245688)"><g><path d="M 2.640625 -36.34375 L 15.640625 -36.34375 C 19.128906 -36.34375 21.972656 -35.410156 24.171875 -33.546875 C 26.378906 -31.679688 27.484375 -29.015625 27.484375 -25.546875 C 27.484375 -22.867188 26.816406 -20.628906 25.484375 -18.828125 C 24.148438 -17.023438 22.335938 -15.753906 20.046875 -15.015625 L 32.546875 0 L 22.03125 0 L 10.921875 -14.359375 L 10.921875 0 L 2.640625 0 Z M 10.921875 -20.21875 L 11.890625 -20.21875 C 12.648438 -20.21875 13.296875 -20.234375 13.828125 -20.265625 C 14.359375 -20.296875 14.960938 -20.394531 15.640625 -20.5625 C 16.316406 -20.738281 16.859375 -20.988281 17.265625 -21.3125 C 17.679688 -21.632812 18.035156 -22.101562 18.328125 -22.71875 C 18.617188 -23.34375 18.765625 -24.09375 18.765625 -24.96875 C 18.765625 -25.851562 18.617188 -26.601562 18.328125 -27.21875 C 18.035156 -27.832031 17.679688 -28.300781 17.265625 -28.625 C 16.859375 -28.945312 16.316406 -29.195312 15.640625 -29.375 C 14.960938 -29.550781 14.359375 -29.65625 13.828125 -29.6875 C 13.296875 -29.71875 12.648438 -29.734375 11.890625 -29.734375 L 10.921875 -29.734375 Z M 10.921875 -20.21875 "/></g></g></g><g fill="#004aad" fill-opacity="1"><g transform="translate(296.686321, 267.245688)"><g><path d="M -1.328125 -36.34375 L 8.640625 -36.34375 L 16.203125 -24.703125 L 23.78125 -36.34375 L 33.734375 -36.34375 L 20.34375 -16.296875 L 20.34375 0 L 12.0625 0 L 12.0625 -16.296875 Z M -1.328125 -36.34375 "/></g></g></g><g fill="#004aad" fill-opacity="1"><g transform="translate(161.717566, 283.791689)"><g><path d="M 3.8125 -8.78125 C 4.269531 -8.78125 4.722656 -8.710938 5.171875 -8.578125 C 5.617188 -8.441406 5.953125 -8.304688 6.171875 -8.171875 L 6.484375 -7.96875 L 5.6875 -6.390625 C 5.625 -6.429688 5.535156 -6.484375 5.421875 -6.546875 C 5.316406 -6.617188 5.109375 -6.710938 4.796875 -6.828125 C 4.492188 -6.941406 4.207031 -7 3.9375 -7 C 3.613281 -7 3.363281 -6.925781 3.1875 -6.78125 C 3.007812 -6.644531 2.921875 -6.457031 2.921875 -6.21875 C 2.921875 -6.101562 2.960938 -5.992188 3.046875 -5.890625 C 3.128906 -5.785156 3.269531 -5.675781 3.46875 -5.5625 C 3.675781 -5.445312 3.851562 -5.351562 4 -5.28125 C 4.15625 -5.21875 4.394531 -5.113281 4.71875 -4.96875 C 5.269531 -4.738281 5.742188 -4.414062 6.140625 -4 C 6.535156 -3.59375 6.734375 -3.132812 6.734375 -2.625 C 6.734375 -2.125 6.644531 -1.691406 6.46875 -1.328125 C 6.289062 -0.960938 6.046875 -0.671875 5.734375 -0.453125 C 5.421875 -0.242188 5.078125 -0.09375 4.703125 0 C 4.328125 0.101562 3.921875 0.15625 3.484375 0.15625 C 3.109375 0.15625 2.738281 0.113281 2.375 0.03125 C 2.007812 -0.0390625 1.703125 -0.132812 1.453125 -0.25 C 1.210938 -0.363281 0.992188 -0.472656 0.796875 -0.578125 C 0.609375 -0.691406 0.46875 -0.789062 0.375 -0.875 L 0.234375 -0.984375 L 1.21875 -2.640625 C 1.300781 -2.566406 1.414062 -2.472656 1.5625 -2.359375 C 1.707031 -2.253906 1.96875 -2.109375 2.34375 -1.921875 C 2.71875 -1.742188 3.046875 -1.65625 3.328125 -1.65625 C 4.160156 -1.65625 4.578125 -1.941406 4.578125 -2.515625 C 4.578125 -2.628906 4.546875 -2.734375 4.484375 -2.828125 C 4.429688 -2.929688 4.328125 -3.035156 4.171875 -3.140625 C 4.023438 -3.242188 3.894531 -3.320312 3.78125 -3.375 C 3.664062 -3.4375 3.476562 -3.53125 3.21875 -3.65625 C 2.957031 -3.78125 2.765625 -3.875 2.640625 -3.9375 C 2.109375 -4.1875 1.703125 -4.503906 1.421875 -4.890625 C 1.140625 -5.285156 1 -5.703125 1 -6.140625 C 1 -6.921875 1.28125 -7.554688 1.84375 -8.046875 C 2.414062 -8.535156 3.070312 -8.78125 3.8125 -8.78125 Z M 3.8125 -8.78125 "/></g></g></g><g fill="#004aad" fill-opacity="1"><g transform="translate(175.55145, 283.791689)"><g><path d="M 2.59375 -3.453125 L 2.59375 0 L 0.625 0 L 0.625 -8.625 L 2.59375 -8.625 L 2.59375 -5.1875 L 5.375 -5.1875 L 5.375 -8.625 L 7.34375 -8.625 L 7.34375 0 L 5.375 0 L 5.375 -3.453125 Z M 2.59375 -3.453125 "/></g></g></g><g fill="#004aad" fill-opacity="1"><g transform="translate(190.326286, 283.791689)"><g><path d="M 0.234375 -4.3125 C 0.234375 -5.5625 0.660156 -6.617188 1.515625 -7.484375 C 2.367188 -8.347656 3.394531 -8.78125 4.59375 -8.78125 C 5.789062 -8.78125 6.8125 -8.347656 7.65625 -7.484375 C 8.5 -6.628906 8.921875 -5.570312 8.921875 -4.3125 C 8.921875 -3.050781 8.503906 -1.988281 7.671875 -1.125 C 6.847656 -0.269531 5.820312 0.15625 4.59375 0.15625 C 3.332031 0.15625 2.289062 -0.269531 1.46875 -1.125 C 0.644531 -1.976562 0.234375 -3.039062 0.234375 -4.3125 Z M 2.359375 -4.3125 C 2.359375 -3.863281 2.425781 -3.453125 2.5625 -3.078125 C 2.707031 -2.703125 2.953125 -2.382812 3.296875 -2.125 C 3.648438 -1.875 4.082031 -1.75 4.59375 -1.75 C 5.320312 -1.75 5.875 -2 6.25 -2.5 C 6.625 -3 6.8125 -3.601562 6.8125 -4.3125 C 6.8125 -5.019531 6.617188 -5.625 6.234375 -6.125 C 5.859375 -6.632812 5.3125 -6.890625 4.59375 -6.890625 C 3.875 -6.890625 3.320312 -6.632812 2.9375 -6.125 C 2.550781 -5.625 2.359375 -5.019531 2.359375 -4.3125 Z M 2.359375 -4.3125 "/></g></g></g><g fill="#004aad" fill-opacity="1"><g transform="translate(206.303445, 283.791689)"><g><path d="M 0.625 -8.625 L 3.78125 -8.625 C 4.65625 -8.625 5.363281 -8.394531 5.90625 -7.9375 C 6.445312 -7.488281 6.71875 -6.832031 6.71875 -5.96875 C 6.71875 -5.101562 6.441406 -4.425781 5.890625 -3.9375 C 5.335938 -3.445312 4.632812 -3.203125 3.78125 -3.203125 L 2.59375 -3.203125 L 2.59375 0 L 0.625 0 Z M 2.59375 -4.765625 L 3.140625 -4.765625 C 3.585938 -4.765625 3.953125 -4.851562 4.234375 -5.03125 C 4.515625 -5.207031 4.65625 -5.5 4.65625 -5.90625 C 4.65625 -6.3125 4.515625 -6.601562 4.234375 -6.78125 C 3.953125 -6.96875 3.585938 -7.0625 3.140625 -7.0625 L 2.59375 -7.0625 Z M 2.59375 -4.765625 "/></g></g></g></svg>