<svg xmlns="http://www.w3.org/2000/svg" xmlns:xlink="http://www.w3.org/1999/xlink" width="500" zoomAndPan="magnify" viewBox="0 0 375 374.999991" height="500" preserveAspectRatio="xMidYMid meet" version="1.0"><defs><clipPath id="5a03534bb7"><path d="M 42 24.003906 L 333 24.003906 L 333 351 L 42 351 Z M 42 24.003906 " clip-rule="nonzero"/></clipPath></defs><path fill="#ffffff" d="M 329.984375 216.726562 C 329.984375 289.371094 187.492188 348.257812 187.492188 348.257812 C 187.492188 348.257812 45.007812 289.371094 45.007812 216.726562 L 45.007812 78.929688 C 70.726562 72.628906 90.992188 52.433594 97.378906 26.746094 L 277.605469 26.746094 C 283.996094 52.433594 304.261719 72.628906 329.984375 78.929688 L 329.984375 216.726562 " fill-opacity="1" fill-rule="nonzero"/><g clip-path="url(#5a03534bb7)"><path fill="#00bf63" d="M 329.984375 216.726562 L 327.261719 216.726562 C 327.261719 225.355469 325.144531 233.832031 321.378906 242.105469 C 314.800781 256.585938 303.117188 270.410156 289.226562 282.90625 C 268.394531 301.65625 242.65625 317.410156 222.15625 328.429688 C 211.90625 333.941406 202.964844 338.273438 196.59375 341.226562 C 193.40625 342.703125 190.863281 343.835938 189.121094 344.59375 C 188.25 344.976562 187.578125 345.261719 187.128906 345.453125 C 186.902344 345.550781 186.730469 345.621094 186.617188 345.667969 C 186.5 345.714844 186.449219 345.738281 186.449219 345.738281 L 187.492188 348.257812 L 188.53125 345.738281 L 188.4375 345.699219 C 186.375 344.84375 150.898438 329.886719 116.105469 306.355469 C 98.710938 294.59375 81.496094 280.679688 68.738281 265.4375 C 62.355469 257.816406 57.085938 249.867188 53.4375 241.71875 C 49.78125 233.5625 47.734375 225.222656 47.730469 216.726562 L 47.730469 78.929688 L 45.007812 78.929688 L 45.660156 81.574219 C 72.367188 75.023438 93.386719 54.078125 100.023438 27.398438 L 97.378906 26.746094 L 97.378906 29.46875 L 277.605469 29.46875 L 277.605469 26.746094 L 274.964844 27.398438 C 281.605469 54.078125 302.625 75.023438 329.335938 81.574219 L 329.984375 78.929688 L 327.261719 78.929688 L 327.261719 216.726562 L 332.707031 216.726562 L 332.707031 78.929688 C 332.707031 77.671875 331.851562 76.582031 330.628906 76.285156 C 305.902344 70.230469 286.390625 50.789062 280.253906 26.085938 C 279.949219 24.871094 278.855469 24.023438 277.605469 24.023438 L 97.378906 24.023438 C 96.128906 24.023438 95.039062 24.871094 94.738281 26.085938 C 88.601562 50.789062 69.09375 70.230469 44.359375 76.285156 C 43.140625 76.582031 42.285156 77.671875 42.285156 78.929688 L 42.285156 216.726562 C 42.285156 226.253906 44.625 235.511719 48.652344 244.363281 C 55.707031 259.851562 67.890625 274.136719 82.121094 286.953125 C 103.476562 306.167969 129.515625 322.078125 150.246094 333.226562 C 170.976562 344.375 186.390625 350.746094 186.449219 350.769531 C 187.113281 351.042969 187.867188 351.042969 188.53125 350.769531 C 188.625 350.726562 224.367188 335.96875 260.25 311.996094 C 278.191406 300.003906 296.183594 285.714844 309.792969 269.6875 C 316.597656 261.671875 322.308594 253.210938 326.335938 244.363281 C 330.367188 235.511719 332.707031 226.253906 332.707031 216.726562 L 329.984375 216.726562 " fill-opacity="1" fill-rule="nonzero"/></g><path fill="#00bf63" d="M 272.59375 182.140625 C 272.269531 183.953125 270.535156 185.117188 268.773438 184.796875 C 266.988281 184.472656 265.796875 182.761719 266.121094 180.976562 C 273.953125 137.433594 244.898438 95.636719 201.355469 87.804688 C 177.828125 83.570312 154.121094 89.871094 135.832031 105.105469 L 146.074219 106.761719 C 147.867188 107.058594 149.085938 108.746094 148.796875 110.539062 C 148.503906 112.351562 146.785156 113.554688 145.019531 113.257812 L 125.125 110.035156 C 123 109.691406 121.816406 107.578125 122.644531 105.335938 L 129.394531 86.703125 C 130.011719 84.996094 131.902344 84.109375 133.609375 84.734375 C 135.316406 85.351562 136.203125 87.238281 135.582031 88.945312 L 131.53125 100.121094 C 151.328125 83.585938 177.019531 76.742188 202.523438 81.324219 C 249.632812 89.800781 281.066406 135.023438 272.59375 182.140625 Z M 114.953125 214.960938 L 104.378906 210.25 C 102.769531 209.53125 100.886719 210.253906 100.171875 211.863281 C 99.453125 213.46875 100.175781 215.355469 101.785156 216.070312 L 119.371094 223.90625 L 119.371094 223.902344 C 121.449219 224.828125 123.589844 223.910156 124.082031 221.820312 L 128.585938 202.765625 C 128.984375 201.054688 127.917969 199.339844 126.207031 198.941406 C 124.492188 198.542969 122.78125 199.609375 122.382812 201.324219 L 120.058594 211.152344 C 100.976562 184.558594 101.070312 150.261719 117.230469 124.355469 C 117.351562 124.160156 117.472656 123.964844 117.597656 123.769531 C 118.941406 121.652344 116.375 117.097656 112.054688 120.601562 C 111.917969 120.8125 111.785156 121.027344 111.652344 121.238281 C 94.34375 149.25 94.28125 186.25 114.953125 214.960938 Z M 233.257812 133.546875 L 195.453125 111.722656 L 185.71875 117.34375 L 223.519531 139.171875 Z M 198.746094 204.71875 L 236.546875 182.890625 L 236.546875 139.246094 L 226.808594 144.867188 L 226.808594 173.265625 C 226.808594 174.441406 226.183594 175.523438 225.164062 176.113281 L 213.410156 182.898438 C 211.25 184.148438 208.476562 182.601562 208.476562 180.046875 L 208.476562 155.449219 L 198.746094 161.070312 Z M 205.191406 149.75 L 167.390625 127.925781 L 157.652344 133.546875 L 195.453125 155.371094 Z M 213.410156 146.902344 C 214.433594 147.488281 215.058594 148.574219 215.058594 149.75 L 215.058594 174.347656 L 220.226562 171.367188 L 220.226562 144.867188 L 179.136719 121.140625 L 173.96875 124.128906 Z M 154.363281 139.246094 L 154.363281 182.890625 L 192.164062 204.71875 L 192.164062 161.070312 Z M 193.808594 213.265625 C 194.832031 213.855469 196.074219 213.855469 197.097656 213.265625 L 241.484375 187.644531 C 242.496094 187.054688 243.125 185.96875 243.125 184.792969 L 243.125 133.546875 C 243.125 132.371094 242.496094 131.285156 241.484375 130.699219 L 197.097656 105.074219 C 196.082031 104.484375 194.824219 104.484375 193.808594 105.074219 L 177.492188 114.492188 C 177.492188 114.496094 177.492188 114.496094 177.492188 114.496094 L 149.429688 130.699219 C 148.410156 131.285156 147.78125 132.371094 147.78125 133.546875 L 147.78125 184.792969 C 147.78125 185.96875 148.410156 187.054688 149.429688 187.644531 Z M 261.097656 215.832031 L 223.292969 254.621094 C 222.164062 256.199219 218.5 256.589844 216.375 256.675781 L 169.503906 258.679688 C 166.707031 258.789062 163.84375 260.066406 162.707031 260.839844 L 159.414062 263.023438 L 151.222656 267.523438 L 131.714844 240.992188 C 141.167969 232.855469 151.074219 225.949219 164.902344 225.902344 L 207.011719 225.734375 C 210.183594 225.730469 215.378906 231.324219 211.589844 235.257812 C 210.382812 236.507812 208.890625 237.078125 208.21875 237.089844 L 186.085938 237.285156 C 184.269531 237.300781 182.8125 238.789062 182.824219 240.605469 C 182.839844 242.414062 184.316406 243.871094 186.148438 243.863281 L 208.28125 243.667969 C 212.65625 243.621094 217.515625 239.988281 218.996094 235.457031 C 221.101562 235.09375 223.21875 234.179688 225.316406 232.714844 L 258.921875 209.773438 C 259.914062 209.628906 261.253906 209.667969 261.945312 210.714844 C 262.621094 211.746094 262.605469 213.710938 261.097656 215.832031 Z M 147.460938 276.824219 C 148.316406 276.195312 148.503906 274.9375 147.875 274.082031 L 124.59375 242.417969 L 123.277344 240.621094 C 122.648438 239.765625 121.394531 239.574219 120.535156 240.207031 L 102.460938 253.496094 C 101.605469 254.125 101.414062 255.378906 102.039062 256.238281 L 126.640625 289.695312 C 127.277344 290.5625 128.527344 290.746094 129.382812 290.113281 Z M 256.878906 203.472656 C 261.320312 202.433594 265.273438 203.796875 267.445312 207.109375 C 269.820312 210.734375 269.355469 215.765625 266.257812 219.929688 C 266.167969 220.046875 266.078125 220.15625 265.96875 220.261719 L 228.464844 258.691406 C 227.308594 260.199219 225.734375 261.300781 223.664062 262.050781 C 221.746094 262.746094 218.953125 263.160156 216.636719 263.253906 L 169.75 265.257812 C 166.867188 265.367188 164.863281 267.527344 162.707031 268.722656 L 154.582031 273.183594 C 155.390625 276.441406 154.222656 280.015625 151.359375 282.128906 L 133.28125 295.414062 C 129.492188 298.203125 124.128906 297.386719 121.339844 293.59375 L 96.742188 260.132812 C 93.953125 256.339844 94.769531 250.984375 98.5625 248.195312 L 116.640625 234.90625 C 120.082031 232.375 124.796875 232.820312 127.722656 235.75 C 137.753906 227.164062 149.0625 219.378906 164.878906 219.324219 L 206.953125 219.15625 C 212.203125 219.121094 217.367188 223.558594 218.976562 228.691406 C 219.800781 228.402344 220.664062 227.941406 221.578125 227.300781 L 255.773438 203.960938 C 256.105469 203.730469 256.480469 203.566406 256.878906 203.472656 Z M 256.878906 203.472656 " fill-opacity="1" fill-rule="evenodd"/></svg>