<svg xmlns="http://www.w3.org/2000/svg" xmlns:xlink="http://www.w3.org/1999/xlink" width="500" zoomAndPan="magnify" viewBox="0 0 375 374.999991" height="500" preserveAspectRatio="xMidYMid meet" version="1.0"><defs><clipPath id="c8615f8505"><path d="M 42 24.003906 L 333 24.003906 L 333 351 L 42 351 Z M 42 24.003906 " clip-rule="nonzero"/></clipPath><clipPath id="7a36f2d57b"><path d="M 67 98 L 308.347656 98 L 308.347656 277 L 67 277 Z M 67 98 " clip-rule="nonzero"/></clipPath></defs><path fill="#ffffff" d="M 329.984375 216.726562 C 329.984375 289.371094 187.492188 348.257812 187.492188 348.257812 C 187.492188 348.257812 45.007812 289.371094 45.007812 216.726562 L 45.007812 78.929688 C 70.726562 72.628906 90.992188 52.433594 97.378906 26.746094 L 277.605469 26.746094 C 283.996094 52.433594 304.261719 72.628906 329.984375 78.929688 L 329.984375 216.726562 " fill-opacity="1" fill-rule="nonzero"/><g clip-path="url(#c8615f8505)"><path fill="#00bf63" d="M 329.984375 216.726562 L 327.261719 216.726562 C 327.261719 225.355469 325.144531 233.832031 321.378906 242.105469 C 314.800781 256.585938 303.117188 270.410156 289.226562 282.90625 C 268.394531 301.65625 242.65625 317.410156 222.15625 328.429688 C 211.90625 333.941406 202.964844 338.273438 196.59375 341.226562 C 193.40625 342.703125 190.863281 343.835938 189.121094 344.59375 C 188.25 344.976562 187.578125 345.261719 187.128906 345.453125 C 186.902344 345.550781 186.730469 345.621094 186.617188 345.667969 C 186.5 345.714844 186.449219 345.738281 186.449219 345.738281 L 187.492188 348.257812 L 188.53125 345.738281 L 188.4375 345.699219 C 186.375 344.84375 150.898438 329.886719 116.105469 306.355469 C 98.710938 294.59375 81.496094 280.679688 68.738281 265.4375 C 62.355469 257.816406 57.085938 249.867188 53.4375 241.71875 C 49.78125 233.5625 47.734375 225.222656 47.730469 216.726562 L 47.730469 78.929688 L 45.007812 78.929688 L 45.660156 81.574219 C 72.367188 75.023438 93.386719 54.078125 100.023438 27.398438 L 97.378906 26.746094 L 97.378906 29.46875 L 277.605469 29.46875 L 277.605469 26.746094 L 274.964844 27.398438 C 281.605469 54.078125 302.625 75.023438 329.335938 81.574219 L 329.984375 78.929688 L 327.261719 78.929688 L 327.261719 216.726562 L 332.707031 216.726562 L 332.707031 78.929688 C 332.707031 77.671875 331.851562 76.582031 330.628906 76.285156 C 305.902344 70.230469 286.390625 50.789062 280.253906 26.085938 C 279.949219 24.871094 278.855469 24.023438 277.605469 24.023438 L 97.378906 24.023438 C 96.128906 24.023438 95.039062 24.871094 94.738281 26.085938 C 88.601562 50.789062 69.09375 70.230469 44.359375 76.285156 C 43.140625 76.582031 42.285156 77.671875 42.285156 78.929688 L 42.285156 216.726562 C 42.285156 226.253906 44.625 235.511719 48.652344 244.363281 C 55.707031 259.851562 67.890625 274.136719 82.121094 286.953125 C 103.476562 306.167969 129.515625 322.078125 150.246094 333.226562 C 170.976562 344.375 186.390625 350.746094 186.449219 350.769531 C 187.113281 351.042969 187.867188 351.042969 188.53125 350.769531 C 188.625 350.726562 224.367188 335.96875 260.25 311.996094 C 278.191406 300.003906 296.183594 285.714844 309.792969 269.6875 C 316.597656 261.671875 322.308594 253.210938 326.335938 244.363281 C 330.367188 235.511719 332.707031 226.253906 332.707031 216.726562 L 329.984375 216.726562 " fill-opacity="1" fill-rule="nonzero"/></g><g clip-path="url(#7a36f2d57b)"><path fill="#00bf63" d="M 304.945312 238.929688 C 303.453125 236.171875 301.519531 233.773438 299.136719 231.734375 C 296.757812 229.695312 294.089844 228.148438 291.136719 227.097656 C 288.878906 227.769531 286.585938 228.3125 284.261719 228.71875 C 279.113281 229.710938 274.25 230.648438 269.632812 235.210938 C 265.007812 239.777344 263.410156 244 261.722656 248.472656 C 260.683594 251.226562 259.605469 254.070312 257.796875 256.910156 C 258.054688 258.324219 258.46875 259.6875 259.035156 261.007812 C 259.484375 262.09375 260.011719 263.144531 260.609375 264.160156 C 261.207031 265.175781 261.871094 266.144531 262.605469 267.066406 C 263.335938 267.988281 264.128906 268.855469 264.984375 269.664062 C 265.835938 270.476562 266.742188 271.226562 267.699219 271.910156 C 268.65625 272.597656 269.65625 273.214844 270.699219 273.761719 C 271.742188 274.308594 272.816406 274.777344 273.925781 275.175781 C 275.035156 275.574219 276.167969 275.890625 277.320312 276.132812 C 278.472656 276.371094 279.636719 276.53125 280.8125 276.609375 C 281.984375 276.6875 283.160156 276.683594 284.335938 276.597656 C 285.507812 276.515625 286.671875 276.347656 287.824219 276.101562 C 288.976562 275.855469 290.105469 275.527344 291.210938 275.125 C 292.316406 274.722656 293.390625 274.242188 294.429688 273.691406 C 295.46875 273.136719 296.464844 272.515625 297.417969 271.824219 C 298.371094 271.132812 299.273438 270.378906 300.121094 269.5625 C 300.96875 268.746094 301.757812 267.871094 302.484375 266.945312 C 303.210938 266.019531 303.871094 265.046875 304.464844 264.03125 C 304.757812 263.535156 305.035156 263.027344 305.296875 262.511719 C 306.765625 259.59375 307.636719 256.511719 307.914062 253.253906 C 307.972656 252.539062 308.023438 251.816406 308.023438 251.082031 C 308.03125 246.769531 307.003906 242.71875 304.945312 238.929688 Z M 296.070312 254.664062 C 295.914062 255.222656 295.722656 255.769531 295.496094 256.304688 C 295.269531 256.839844 295.011719 257.359375 294.71875 257.863281 C 294.429688 258.367188 294.105469 258.847656 293.753906 259.3125 C 293.402344 259.773438 293.023438 260.214844 292.617188 260.628906 C 292.207031 261.042969 291.777344 261.433594 291.320312 261.792969 C 290.863281 262.152344 290.386719 262.484375 289.890625 262.785156 C 289.394531 263.085938 288.878906 263.355469 288.347656 263.589844 C 287.816406 263.828125 287.273438 264.03125 286.714844 264.199219 C 286.160156 264.367188 285.59375 264.496094 285.019531 264.59375 C 284.449219 264.691406 283.871094 264.753906 283.289062 264.777344 C 282.707031 264.800781 282.128906 264.789062 281.550781 264.742188 C 280.96875 264.691406 280.394531 264.609375 279.828125 264.488281 C 279.257812 264.367188 278.699219 264.210938 278.148438 264.019531 C 277.601562 263.832031 277.066406 263.605469 276.542969 263.347656 C 276.023438 263.089844 275.519531 262.800781 275.035156 262.480469 C 274.550781 262.160156 274.089844 261.808594 273.648438 261.429688 C 273.207031 261.050781 272.792969 260.644531 272.402344 260.214844 C 272.011719 259.78125 271.652344 259.328125 271.316406 258.851562 C 270.984375 258.375 270.683594 257.878906 270.414062 257.363281 C 270.144531 256.847656 269.90625 256.320312 269.703125 255.773438 C 269.496094 255.230469 269.328125 254.675781 269.195312 254.109375 C 269.058594 253.542969 268.960938 252.972656 268.898438 252.394531 C 268.835938 251.816406 268.8125 251.234375 268.820312 250.65625 C 268.832031 250.074219 268.878906 249.496094 268.960938 248.917969 C 269.046875 248.34375 269.164062 247.777344 269.320312 247.214844 C 269.472656 246.65625 269.660156 246.105469 269.886719 245.570312 C 270.109375 245.03125 270.363281 244.511719 270.652344 244.007812 C 270.941406 243.503906 271.261719 243.019531 271.613281 242.554688 C 271.960938 242.089844 272.339844 241.648438 272.742188 241.230469 C 273.148438 240.8125 273.578125 240.421875 274.03125 240.058594 C 274.488281 239.699219 274.960938 239.363281 275.457031 239.058594 C 275.953125 238.757812 276.464844 238.484375 276.996094 238.246094 C 277.527344 238.007812 278.070312 237.804688 278.625 237.632812 C 279.179688 237.460938 279.746094 237.324219 280.316406 237.226562 C 280.890625 237.125 281.46875 237.0625 282.046875 237.035156 C 282.628906 237.007812 283.210938 237.015625 283.789062 237.0625 C 284.367188 237.105469 284.941406 237.1875 285.511719 237.304688 C 286.082031 237.421875 286.640625 237.578125 287.191406 237.765625 C 287.742188 237.953125 288.277344 238.171875 288.800781 238.429688 C 289.324219 238.683594 289.828125 238.972656 290.3125 239.289062 C 290.800781 239.609375 291.265625 239.957031 291.707031 240.332031 C 292.148438 240.710938 292.566406 241.113281 292.960938 241.542969 C 293.351562 241.972656 293.714844 242.425781 294.050781 242.898438 C 294.386719 243.375 294.691406 243.867188 294.960938 244.382812 C 295.234375 244.894531 295.476562 245.425781 295.683594 245.96875 C 295.890625 246.511719 296.0625 247.066406 296.199219 247.628906 C 296.335938 248.195312 296.4375 248.765625 296.5 249.34375 C 296.566406 249.921875 296.597656 250.5 296.589844 251.082031 C 296.570312 252.296875 296.398438 253.492188 296.070312 254.664062 Z M 271.265625 231.328125 C 272.6875 230.335938 274.210938 229.527344 275.828125 228.902344 C 276.339844 228.703125 276.855469 228.519531 277.371094 228.355469 C 279.425781 227.734375 281.511719 227.242188 283.628906 226.871094 C 284.15625 226.769531 284.6875 226.667969 285.21875 226.566406 C 285.964844 226.417969 286.714844 226.257812 287.464844 226.085938 C 287.785156 226.011719 288.101562 225.941406 288.421875 225.863281 C 290.09375 225.457031 291.714844 224.921875 293.296875 224.253906 C 294.328125 223.816406 295.324219 223.304688 296.285156 222.730469 C 296.699219 222.480469 297.066406 222.238281 297.398438 222.003906 C 298.265625 221.433594 299.039062 220.75 299.714844 219.957031 C 297.59375 218.378906 295.304688 217.109375 292.847656 216.144531 C 292.644531 216.0625 292.441406 215.976562 292.238281 215.898438 C 291.140625 215.476562 290.023438 215.117188 288.886719 214.816406 C 288.667969 214.757812 288.445312 214.707031 288.226562 214.652344 C 287.03125 214.355469 285.824219 214.125 284.601562 213.960938 C 283.34375 213.8125 282.082031 213.730469 280.816406 213.71875 C 280.574219 213.714844 280.335938 213.707031 280.09375 213.707031 C 279.097656 213.71875 278.097656 213.757812 277.089844 213.855469 C 273.027344 214.265625 269.167969 215.386719 265.519531 217.226562 L 267.613281 214.1875 L 268.640625 212.695312 C 269.132812 211.984375 269.53125 211.226562 269.835938 210.417969 C 270.140625 209.609375 270.34375 208.777344 270.445312 207.921875 C 270.550781 207.066406 270.546875 206.207031 270.441406 205.351562 C 270.335938 204.496094 270.128906 203.664062 269.824219 202.859375 L 256.152344 167.007812 L 264.578125 168.351562 C 264.792969 168.382812 265.007812 168.394531 265.222656 168.382812 C 265.4375 168.367188 265.652344 168.332031 265.859375 168.273438 C 266.066406 168.214844 266.265625 168.136719 266.457031 168.035156 C 266.648438 167.929688 266.828125 167.808594 266.992188 167.667969 C 267.15625 167.53125 267.304688 167.371094 267.433594 167.199219 C 267.566406 167.027344 267.675781 166.84375 267.765625 166.648438 C 267.855469 166.449219 267.925781 166.246094 267.972656 166.035156 C 268.019531 165.824219 268.042969 165.609375 268.042969 165.394531 L 268.042969 149.65625 C 268.042969 149.441406 268.019531 149.226562 267.972656 149.015625 C 267.925781 148.804688 267.855469 148.601562 267.765625 148.402344 C 267.675781 148.207031 267.566406 148.023438 267.433594 147.851562 C 267.304688 147.675781 267.15625 147.519531 266.992188 147.378906 C 266.828125 147.238281 266.648438 147.117188 266.457031 147.015625 C 266.265625 146.914062 266.066406 146.835938 265.859375 146.777344 C 265.652344 146.71875 265.4375 146.679688 265.222656 146.667969 C 265.007812 146.65625 264.792969 146.667969 264.578125 146.699219 L 245.257812 149.773438 C 244.84375 149.839844 244.457031 149.976562 244.09375 150.179688 C 243.726562 150.382812 243.410156 150.644531 243.136719 150.960938 C 242.867188 151.28125 242.660156 151.636719 242.515625 152.027344 C 242.371094 152.417969 242.296875 152.824219 242.296875 153.242188 L 242.296875 156.144531 C 242.003906 156.082031 241.703125 156.042969 241.402344 156.027344 L 226.003906 155.832031 C 225.484375 155.8125 224.992188 155.6875 224.523438 155.457031 C 224.058594 155.222656 223.660156 154.90625 223.332031 154.503906 L 209.390625 137.328125 C 201.679688 127.875 188.515625 130.820312 186.039062 142.765625 L 178.792969 170.007812 C 178.558594 171.117188 178.433594 172.238281 178.410156 173.371094 C 178.386719 174.507812 178.46875 175.632812 178.652344 176.75 C 178.839844 177.871094 179.125 178.960938 179.515625 180.027344 C 179.90625 181.09375 180.390625 182.113281 180.96875 183.089844 C 181.546875 184.0625 182.210938 184.976562 182.960938 185.828125 C 183.707031 186.679688 184.527344 187.457031 185.421875 188.15625 C 186.316406 188.855469 187.265625 189.464844 188.273438 189.988281 C 189.277344 190.511719 190.324219 190.9375 191.410156 191.265625 L 146.648438 191.265625 C 146.425781 191.265625 146.214844 191.308594 146.011719 191.390625 C 145.8125 191.476562 145.632812 191.59375 145.476562 191.75 C 145.320312 191.90625 145.203125 192.085938 145.117188 192.289062 C 145.035156 192.492188 144.992188 192.703125 144.992188 192.921875 L 144.992188 199.148438 C 144.992188 199.371094 145.035156 199.582031 145.117188 199.785156 C 145.203125 199.988281 145.320312 200.164062 145.476562 200.320312 C 145.632812 200.476562 145.8125 200.597656 146.015625 200.679688 C 146.214844 200.765625 146.425781 200.804688 146.648438 200.804688 L 208.695312 200.804688 C 208.914062 200.804688 209.125 200.765625 209.328125 200.679688 C 209.53125 200.597656 209.710938 200.476562 209.867188 200.320312 C 210.023438 200.167969 210.140625 199.988281 210.226562 199.785156 C 210.3125 199.582031 210.351562 199.371094 210.351562 199.148438 L 210.351562 194.21875 L 218.8125 195.4375 L 212.117188 225.21875 C 212.039062 225.660156 212.003906 226.105469 212.011719 226.554688 C 212.023438 227.003906 212.074219 227.449219 212.167969 227.886719 C 212.265625 228.328125 212.402344 228.753906 212.578125 229.164062 C 212.757812 229.578125 212.972656 229.96875 213.230469 230.335938 C 213.484375 230.707031 213.769531 231.050781 214.09375 231.363281 C 214.414062 231.675781 214.761719 231.957031 215.136719 232.203125 C 215.511719 232.449219 215.910156 232.65625 216.324219 232.824219 C 216.742188 232.992188 217.167969 233.121094 217.609375 233.207031 C 218.050781 233.292969 218.496094 233.332031 218.945312 233.332031 C 219.394531 233.332031 219.839844 233.285156 220.277344 233.199219 C 220.71875 233.109375 221.148438 232.980469 221.5625 232.808594 C 221.976562 232.636719 222.371094 232.425781 222.746094 232.175781 C 223.121094 231.929688 223.464844 231.648438 223.785156 231.332031 C 224.105469 231.015625 224.390625 230.671875 224.640625 230.300781 C 224.894531 229.929688 225.105469 229.535156 225.28125 229.121094 C 225.457031 228.707031 225.589844 228.28125 225.683594 227.84375 L 233.957031 194.976562 C 234.125 194.183594 234.214844 193.386719 234.226562 192.578125 C 234.234375 191.769531 234.164062 190.964844 234.015625 190.171875 C 233.867188 189.378906 233.640625 188.605469 233.339844 187.855469 C 233.035156 187.105469 232.664062 186.390625 232.21875 185.714844 C 231.773438 185.039062 231.269531 184.414062 230.699219 183.839844 C 230.132812 183.265625 229.511719 182.75 228.84375 182.296875 C 228.171875 181.84375 227.464844 181.464844 226.71875 181.152344 C 225.972656 180.839844 225.203125 180.601562 224.410156 180.445312 C 217.445312 179.042969 208.792969 177.355469 204.289062 176.480469 C 203.886719 176.402344 203.519531 176.25 203.179688 176.023438 C 202.84375 175.792969 202.5625 175.507812 202.339844 175.167969 C 202.117188 174.824219 201.96875 174.453125 201.898438 174.050781 C 201.828125 173.648438 201.839844 173.246094 201.929688 172.847656 L 206.132812 154.167969 L 214.003906 163.492188 C 214.660156 164.300781 215.402344 165.027344 216.230469 165.664062 C 217.054688 166.300781 217.945312 166.835938 218.894531 167.269531 C 219.847656 167.699219 220.832031 168.015625 221.859375 168.21875 C 222.882812 168.421875 223.914062 168.503906 224.957031 168.464844 L 241.402344 167.566406 C 242.253906 167.535156 243.054688 167.324219 243.8125 166.9375 L 249.707031 199.75 C 250.125 202.070312 250.171875 204.398438 249.855469 206.734375 C 249.535156 209.070312 248.863281 211.296875 247.835938 213.421875 L 239.601562 230.488281 C 239.144531 231.425781 238.570312 232.285156 237.875 233.0625 C 237.179688 233.839844 236.390625 234.507812 235.503906 235.0625 C 234.621094 235.617188 233.675781 236.039062 232.675781 236.328125 C 231.671875 236.617188 230.648438 236.761719 229.605469 236.761719 L 213.988281 236.761719 C 213.59375 236.761719 213.203125 236.738281 212.808594 236.695312 C 212.417969 236.652344 212.03125 236.589844 211.648438 236.503906 C 211.261719 236.414062 210.882812 236.308594 210.511719 236.179688 C 210.140625 236.050781 209.773438 235.90625 209.417969 235.734375 C 209.0625 235.566406 208.71875 235.378906 208.382812 235.175781 C 208.046875 234.96875 207.722656 234.742188 207.414062 234.5 C 207.101562 234.257812 206.804688 234 206.523438 233.726562 C 206.242188 233.449219 205.976562 233.160156 205.726562 232.855469 C 205.476562 232.550781 205.246094 232.234375 205.03125 231.90625 C 204.8125 231.574219 204.617188 231.234375 204.441406 230.882812 C 204.265625 230.53125 204.105469 230.171875 203.96875 229.800781 C 203.832031 229.433594 203.714844 229.058594 203.617188 228.675781 C 203.523438 228.292969 203.449219 227.90625 203.394531 227.515625 C 203.339844 227.125 203.308594 226.734375 203.300781 226.339844 C 203.289062 225.949219 203.300781 225.554688 203.335938 225.164062 C 203.367188 224.769531 203.421875 224.378906 203.5 223.992188 L 207.609375 203.21875 L 148.484375 203.21875 C 147.652344 203.214844 146.886719 203.433594 146.179688 203.867188 C 145.625 204.214844 144.882812 204.695312 143.992188 205.304688 C 143.5 205.648438 142.953125 205.820312 142.351562 205.824219 L 117.078125 205.824219 C 116.675781 205.824219 116.285156 205.902344 115.910156 206.054688 C 115.539062 206.210938 115.207031 206.429688 114.921875 206.71875 C 114.636719 207.003906 114.414062 207.332031 114.261719 207.707031 C 114.105469 208.082031 114.027344 208.46875 114.027344 208.875 C 114.027344 209.277344 114.105469 209.667969 114.261719 210.042969 C 114.414062 210.414062 114.636719 210.746094 114.921875 211.03125 C 115.207031 211.316406 115.539062 211.539062 115.910156 211.691406 C 116.285156 211.847656 116.675781 211.925781 117.078125 211.925781 L 145.945312 211.925781 C 146.351562 211.925781 146.738281 212.003906 147.113281 212.15625 C 147.488281 212.3125 147.816406 212.53125 148.105469 212.820312 C 148.390625 213.105469 148.609375 213.433594 148.765625 213.808594 C 148.917969 214.183594 148.996094 214.570312 148.996094 214.976562 C 148.996094 215.378906 148.917969 215.769531 148.765625 216.144531 C 148.609375 216.515625 148.390625 216.847656 148.105469 217.132812 C 147.816406 217.417969 147.488281 217.640625 147.113281 217.792969 C 146.738281 217.949219 146.351562 218.027344 145.945312 218.027344 L 73.179688 218.027344 C 72.773438 218.027344 72.382812 218.105469 72.011719 218.257812 C 71.636719 218.414062 71.308594 218.632812 71.019531 218.917969 C 70.734375 219.207031 70.515625 219.535156 70.359375 219.910156 C 70.203125 220.285156 70.128906 220.671875 70.128906 221.078125 C 70.128906 221.480469 70.203125 221.871094 70.359375 222.246094 C 70.515625 222.617188 70.734375 222.949219 71.019531 223.234375 C 71.308594 223.519531 71.636719 223.742188 72.011719 223.894531 C 72.382812 224.050781 72.773438 224.128906 73.179688 224.128906 L 131.453125 224.128906 C 131.859375 224.125 132.25 224.199219 132.628906 224.351562 C 133.007812 224.503906 133.339844 224.722656 133.628906 225.011719 C 133.917969 225.296875 134.140625 225.628906 134.296875 226.003906 C 134.457031 226.378906 134.535156 226.769531 134.535156 227.179688 C 134.535156 227.585938 134.457031 227.976562 134.296875 228.351562 C 134.140625 228.730469 133.917969 229.058594 133.628906 229.347656 C 133.339844 229.632812 133.007812 229.851562 132.628906 230.003906 C 132.25 230.160156 131.859375 230.234375 131.453125 230.230469 L 94.085938 230.230469 C 93.679688 230.230469 93.289062 230.304688 92.917969 230.460938 C 92.542969 230.617188 92.210938 230.835938 91.925781 231.121094 C 91.640625 231.410156 91.421875 231.738281 91.265625 232.113281 C 91.109375 232.484375 91.035156 232.875 91.035156 233.28125 C 91.035156 233.683594 91.109375 234.074219 91.265625 234.445312 C 91.421875 234.820312 91.640625 235.152344 91.925781 235.4375 C 92.210938 235.722656 92.542969 235.945312 92.917969 236.097656 C 93.289062 236.253906 93.679688 236.332031 94.085938 236.332031 L 119.308594 236.332031 C 117.46875 241.613281 116.550781 247.054688 116.554688 252.648438 L 126.480469 252.648438 C 126.480469 252.707031 126.46875 252.765625 126.46875 252.828125 C 126.46875 253.511719 126.515625 254.183594 126.570312 254.851562 C 126.800781 257.640625 127.507812 260.304688 128.683594 262.847656 C 129.863281 265.386719 131.445312 267.644531 133.425781 269.621094 C 134.0625 270.265625 134.730469 270.871094 135.4375 271.4375 C 136.140625 272.003906 136.878906 272.527344 137.644531 273.007812 C 138.410156 273.492188 139.199219 273.925781 140.015625 274.316406 C 140.832031 274.710938 141.664062 275.050781 142.519531 275.347656 C 143.375 275.644531 144.246094 275.886719 145.128906 276.082031 C 146.011719 276.277344 146.902344 276.421875 147.800781 276.515625 C 148.703125 276.609375 149.605469 276.648438 150.507812 276.640625 C 151.414062 276.628906 152.3125 276.566406 153.210938 276.453125 C 154.109375 276.339844 154.996094 276.171875 155.875 275.957031 C 156.753906 275.742188 157.617188 275.476562 158.464844 275.160156 C 159.3125 274.84375 160.136719 274.484375 160.945312 274.074219 C 161.75 273.664062 162.53125 273.207031 163.285156 272.707031 C 164.039062 272.207031 164.761719 271.667969 165.453125 271.085938 C 166.144531 270.5 166.800781 269.882812 167.421875 269.222656 C 168.042969 268.566406 168.621094 267.875 169.164062 267.148438 C 169.703125 266.425781 170.203125 265.671875 170.65625 264.890625 C 170.929688 264.425781 171.191406 263.957031 171.433594 263.472656 C 172.800781 260.757812 173.613281 257.882812 173.871094 254.851562 C 173.929688 254.183594 173.972656 253.511719 173.972656 252.828125 C 173.972656 252.765625 173.960938 252.710938 173.960938 252.648438 L 231.933594 252.648438 C 233.34375 252.632812 234.734375 252.453125 236.101562 252.105469 C 237.46875 251.761719 238.777344 251.257812 240.027344 250.601562 C 241.277344 249.945312 242.429688 249.152344 243.492188 248.222656 C 244.554688 247.292969 245.492188 246.253906 246.304688 245.101562 L 247.296875 243.660156 C 247.082031 245.839844 247.082031 248.015625 247.292969 250.191406 C 247.386719 251.144531 247.542969 252.074219 247.714844 252.996094 C 248.238281 255.824219 249.113281 258.535156 250.339844 261.136719 C 250.75 260.957031 251.144531 260.75 251.523438 260.511719 C 252.117188 260.140625 252.683594 259.726562 253.21875 259.269531 C 253.941406 258.652344 254.601562 257.972656 255.195312 257.230469 C 255.542969 256.792969 255.867188 256.339844 256.164062 255.871094 C 256.558594 255.253906 256.90625 254.636719 257.234375 254.015625 C 260.667969 247.546875 261.042969 240.972656 268.273438 233.832031 C 269.199219 232.914062 270.195312 232.078125 271.265625 231.328125 Z M 163.320312 252.828125 C 163.308594 253.679688 163.214844 254.523438 163.039062 255.355469 C 162.863281 256.191406 162.605469 257 162.273438 257.78125 C 161.9375 258.566406 161.53125 259.3125 161.050781 260.015625 C 160.570312 260.71875 160.027344 261.371094 159.417969 261.96875 C 158.8125 262.570312 158.152344 263.101562 157.441406 263.574219 C 156.730469 264.042969 155.980469 264.4375 155.191406 264.761719 C 154.402344 265.085938 153.589844 265.332031 152.753906 265.496094 C 151.917969 265.660156 151.074219 265.742188 150.222656 265.742188 C 149.367188 265.742188 148.523438 265.660156 147.6875 265.496094 C 146.851562 265.332031 146.039062 265.085938 145.25 264.761719 C 144.460938 264.4375 143.710938 264.042969 143 263.574219 C 142.289062 263.101562 141.628906 262.570312 141.023438 261.96875 C 140.414062 261.371094 139.871094 260.71875 139.390625 260.015625 C 138.914062 259.3125 138.503906 258.566406 138.171875 257.78125 C 137.835938 257 137.578125 256.191406 137.402344 255.355469 C 137.226562 254.523438 137.132812 253.679688 137.121094 252.828125 C 137.121094 252.765625 137.136719 252.710938 137.136719 252.648438 L 163.304688 252.648438 C 163.304688 252.710938 163.320312 252.765625 163.320312 252.828125 Z M 194.398438 123.257812 C 194.074219 120.808594 193.421875 115.660156 193.484375 114.316406 C 193.921875 104.929688 200.472656 97.609375 211.265625 98.113281 C 212.167969 98.15625 213.0625 98.269531 213.945312 98.453125 C 214.832031 98.636719 215.695312 98.890625 216.539062 99.210938 C 217.382812 99.53125 218.195312 99.917969 218.976562 100.371094 C 219.761719 100.820312 220.5 101.332031 221.203125 101.902344 C 221.902344 102.46875 222.554688 103.089844 223.15625 103.765625 C 223.761719 104.4375 224.304688 105.152344 224.792969 105.914062 C 225.28125 106.671875 225.707031 107.464844 226.070312 108.292969 C 226.429688 109.121094 226.722656 109.972656 226.949219 110.847656 L 210.425781 110.078125 C 210.199219 110.066406 209.976562 110.101562 209.761719 110.179688 C 209.550781 110.253906 209.359375 110.371094 209.191406 110.523438 C 209.023438 110.675781 208.890625 110.855469 208.792969 111.0625 C 208.699219 111.269531 208.644531 111.484375 208.632812 111.710938 L 208.375 117.304688 C 208.359375 117.566406 208.390625 117.820312 208.460938 118.070312 C 208.535156 118.320312 208.644531 118.554688 208.792969 118.765625 C 208.941406 118.980469 209.117188 119.164062 209.328125 119.320312 C 209.535156 119.476562 209.765625 119.59375 210.011719 119.675781 L 226.261719 124.964844 C 225.242188 127.992188 223.765625 130.773438 221.832031 133.320312 C 221.53125 133.710938 221.144531 133.976562 220.667969 134.109375 C 220.195312 134.246094 219.726562 134.222656 219.265625 134.046875 L 195.804688 125.039062 C 195.425781 124.894531 195.109375 124.660156 194.855469 124.34375 C 194.605469 124.023438 194.449219 123.660156 194.398438 123.257812 Z M 99.976562 158.65625 L 70.050781 158.65625 C 69.835938 158.65625 69.625 158.636719 69.417969 158.589844 C 69.207031 158.546875 69.003906 158.480469 68.808594 158.394531 C 68.613281 158.308594 68.429688 158.203125 68.257812 158.074219 C 68.085938 157.949219 67.925781 157.808594 67.785156 157.648438 C 67.640625 157.492188 67.515625 157.320312 67.410156 157.132812 C 67.300781 156.949219 67.214844 156.753906 67.148438 156.550781 C 67.082031 156.347656 67.039062 156.140625 67.015625 155.929688 C 66.992188 155.714844 66.992188 155.503906 67.015625 155.292969 C 67.175781 153.703125 68.628906 152.554688 70.222656 152.554688 L 107.800781 152.554688 C 108.015625 152.554688 108.226562 152.535156 108.433594 152.488281 C 108.644531 152.445312 108.84375 152.378906 109.039062 152.292969 C 109.234375 152.207031 109.417969 152.101562 109.59375 151.972656 C 109.765625 151.847656 109.921875 151.707031 110.066406 151.546875 C 110.207031 151.390625 110.332031 151.21875 110.441406 151.03125 C 110.546875 150.847656 110.632812 150.652344 110.699219 150.449219 C 110.765625 150.246094 110.8125 150.039062 110.835938 149.828125 C 110.855469 149.617188 110.855469 149.402344 110.835938 149.191406 C 110.675781 147.601562 109.222656 146.453125 107.625 146.453125 L 77.519531 146.453125 C 77.117188 146.453125 76.726562 146.378906 76.355469 146.222656 C 75.980469 146.066406 75.648438 145.847656 75.363281 145.5625 C 75.078125 145.273438 74.859375 144.945312 74.703125 144.570312 C 74.546875 144.199219 74.46875 143.808594 74.46875 143.402344 C 74.46875 143 74.546875 142.609375 74.703125 142.238281 C 74.859375 141.863281 75.078125 141.53125 75.363281 141.246094 C 75.648438 140.960938 75.980469 140.742188 76.355469 140.585938 C 76.726562 140.429688 77.117188 140.351562 77.519531 140.351562 L 107.800781 140.351562 C 108.015625 140.351562 108.226562 140.332031 108.433594 140.285156 C 108.644531 140.242188 108.84375 140.175781 109.039062 140.089844 C 109.234375 140.003906 109.417969 139.898438 109.59375 139.773438 C 109.765625 139.644531 109.921875 139.503906 110.066406 139.34375 C 110.207031 139.1875 110.332031 139.015625 110.441406 138.832031 C 110.546875 138.644531 110.632812 138.453125 110.699219 138.25 C 110.765625 138.046875 110.8125 137.835938 110.835938 137.625 C 110.855469 137.414062 110.855469 137.199219 110.835938 136.988281 C 110.675781 135.398438 109.222656 134.25 107.625 134.25 L 86.589844 134.25 C 86.375 134.25 86.164062 134.230469 85.957031 134.183594 C 85.746094 134.140625 85.546875 134.074219 85.351562 133.988281 C 85.15625 133.902344 84.972656 133.796875 84.796875 133.671875 C 84.625 133.542969 84.46875 133.402344 84.324219 133.242188 C 84.179688 133.085938 84.054688 132.914062 83.949219 132.730469 C 83.84375 132.542969 83.753906 132.351562 83.691406 132.148438 C 83.625 131.945312 83.578125 131.734375 83.554688 131.523438 C 83.535156 131.3125 83.535156 131.097656 83.554688 130.886719 C 83.714844 129.296875 85.167969 128.148438 86.765625 128.148438 L 99.976562 128.148438 L 99.976562 124.644531 C 99.976562 124.246094 100.054688 123.859375 100.207031 123.488281 C 100.359375 123.121094 100.578125 122.792969 100.863281 122.507812 C 101.144531 122.226562 101.472656 122.007812 101.84375 121.855469 C 102.214844 121.699219 102.597656 121.625 103 121.625 L 170.503906 121.625 C 170.90625 121.625 171.289062 121.699219 171.660156 121.855469 C 172.03125 122.007812 172.359375 122.226562 172.640625 122.507812 C 172.925781 122.792969 173.144531 123.117188 173.296875 123.488281 C 173.449219 123.859375 173.527344 124.246094 173.527344 124.644531 L 173.527344 183.597656 C 173.527344 183.875 173.5 184.148438 173.445312 184.421875 C 173.390625 184.695312 173.3125 184.960938 173.203125 185.214844 C 173.097656 185.472656 172.96875 185.714844 172.8125 185.945312 C 172.660156 186.179688 172.484375 186.390625 172.289062 186.585938 C 172.09375 186.785156 171.878906 186.960938 171.648438 187.113281 C 171.417969 187.269531 171.171875 187.398438 170.917969 187.503906 C 170.660156 187.609375 170.394531 187.691406 170.121094 187.746094 C 169.851562 187.800781 169.574219 187.828125 169.296875 187.828125 L 103 187.828125 C 102.597656 187.828125 102.214844 187.75 101.84375 187.597656 C 101.472656 187.441406 101.144531 187.226562 100.863281 186.941406 C 100.578125 186.65625 100.359375 186.332031 100.207031 185.960938 C 100.054688 185.589844 99.976562 185.207031 99.976562 184.804688 L 99.976562 164.757812 L 107.800781 164.757812 C 108.015625 164.757812 108.226562 164.738281 108.433594 164.691406 C 108.644531 164.648438 108.84375 164.582031 109.039062 164.496094 C 109.234375 164.410156 109.417969 164.300781 109.59375 164.175781 C 109.765625 164.050781 109.921875 163.910156 110.066406 163.75 C 110.207031 163.59375 110.332031 163.421875 110.441406 163.234375 C 110.546875 163.050781 110.632812 162.855469 110.699219 162.652344 C 110.765625 162.453125 110.8125 162.242188 110.832031 162.03125 C 110.855469 161.820312 110.855469 161.605469 110.835938 161.394531 C 110.675781 159.804688 109.222656 158.65625 107.625 158.65625 Z M 99.976562 158.65625 " fill-opacity="1" fill-rule="nonzero"/></g></svg>